<svg data-v-fde0c5aa="" xmlns="http://www.w3.org/2000/svg" viewBox="0 0 300 300" class="font"><!----><defs data-v-fde0c5aa=""><!----></defs><rect data-v-fde0c5aa="" fill="#FFFFFF" x="0" y="0" width="300px" height="300px" class="logo-background-square"></rect><defs data-v-fde0c5aa=""><linearGradient data-v-fde0c5aa="" gradientTransform="rotate(25)" id="bd457f91-6554-4ce3-a844-c20931c22d2a" x1="0%" y1="0%" x2="100%" y2="0%"><stop data-v-fde0c5aa="" offset="0%" stop-color="#FF8400" stop-opacity="1"></stop><stop data-v-fde0c5aa="" offset="100%" stop-color="#6E1C00" stop-opacity="1"></stop></linearGradient></defs><g data-v-fde0c5aa="" id="352c1f01-8b30-4d96-b21a-da96f4a97199" fill="url(#bd457f91-6554-4ce3-a844-c20931c22d2a)" transform="matrix(5.271927356719971,0,0,5.271927356719971,37.055134325563984,98.78404942431902)"><path d="M7.22 7.06C7.22 6.64 6.89 6.30 6.48 6.30C6.12 6.30 5.84 6.57 5.75 6.92C5.22 6.54 4.59 6.30 3.89 6.30C2.94 6.30 2.11 6.71 1.51 7.35C0.91 7.98 0.56 8.85 0.56 9.81C0.56 10.77 0.91 11.63 1.51 12.28C2.11 12.91 2.94 13.30 3.89 13.30C3.89 13.30 3.89 13.30 3.89 13.30C4.59 13.30 5.22 13.08 5.75 12.70C5.84 13.03 6.12 13.30 6.48 13.30C6.89 13.30 7.22 12.96 7.22 12.56L7.22 9.81C7.22 9.81 7.22 9.81 7.22 9.81C7.22 9.81 7.22 9.81 7.22 9.81L7.22 7.06ZM5.19 11.26C4.86 11.61 4.38 11.80 3.89 11.80C3.39 11.80 2.91 11.61 2.59 11.26C2.25 10.89 2.06 10.39 2.06 9.81C2.06 9.23 2.25 8.72 2.59 8.37C2.91 7.99 3.39 7.80 3.89 7.80C4.38 7.80 4.86 7.99 5.19 8.37C5.53 8.72 5.74 9.23 5.74 9.81C5.74 10.39 5.53 10.89 5.19 11.26ZM10.71 15.93C11.16 15.93 11.51 15.57 11.51 15.18L11.51 12.71C12.01 13.08 12.68 13.29 13.38 13.29C15.25 13.29 16.77 11.73 16.77 9.81C16.77 7.90 15.25 6.30 13.38 6.30C12.67 6.30 12.00 6.54 11.48 6.87C11.42 6.57 11.10 6.30 10.71 6.30C10.30 6.30 9.97 6.64 9.97 7.04L9.97 9.81C9.97 9.81 9.97 9.81 9.97 9.81C9.97 9.83 9.97 9.83 9.97 9.83L9.97 15.18C9.97 15.57 10.30 15.93 10.71 15.93ZM12.05 8.40C12.40 8.02 12.87 7.83 13.38 7.83C13.86 7.83 14.34 8.02 14.70 8.40C15.02 8.76 15.25 9.27 15.25 9.81C15.25 10.36 15.02 10.89 14.70 11.21C14.34 11.61 13.86 11.80 13.38 11.80C12.87 11.80 12.40 11.61 12.05 11.21C11.69 10.89 11.51 10.36 11.51 9.81C11.51 9.27 11.69 8.76 12.05 8.40ZM19.54 6.31C19.12 6.31 18.79 6.64 18.79 7.08L18.79 12.54C18.79 12.96 19.12 13.30 19.54 13.30C19.98 13.30 20.30 12.96 20.30 12.54L20.30 7.08C20.30 6.64 19.98 6.31 19.54 6.31ZM20.30 4.26C20.30 3.84 19.98 3.50 19.54 3.50C19.12 3.50 18.79 3.84 18.79 4.26L18.79 4.55C18.79 4.97 19.12 5.32 19.54 5.32C19.98 5.32 20.30 4.97 20.30 4.55L20.30 4.26ZM29.15 6.51C29.15 4.84 27.80 3.50 26.14 3.50L23.65 3.50C23.65 3.50 23.65 3.50 23.65 3.50C23.65 3.50 23.63 3.50 23.63 3.50C23.21 3.50 22.86 3.84 22.86 4.27L22.86 12.53C22.86 12.95 23.21 13.30 23.63 13.30C24.07 13.30 24.42 12.95 24.42 12.53L24.42 9.49L26.14 9.49C27.80 9.49 29.15 8.15 29.15 6.51ZM24.42 5.05L26.14 5.05C26.95 5.05 27.58 5.70 27.59 6.51C27.58 7.29 26.95 7.94 26.14 7.94L24.42 7.94L24.42 5.05ZM33.71 13.34C33.71 13.34 33.71 13.34 33.71 13.34C34.64 13.34 35.48 12.94 36.05 12.28C36.68 11.66 37.03 10.79 37.03 9.81L37.03 9.81C37.03 8.86 36.68 8.04 36.05 7.36C35.48 6.71 34.64 6.30 33.71 6.30C32.75 6.30 31.93 6.71 31.30 7.36C30.70 8.04 30.34 8.86 30.34 9.81C30.34 10.79 30.70 11.66 31.30 12.28C31.93 12.94 32.75 13.34 33.71 13.34ZM32.37 8.36C32.72 8.05 33.18 7.83 33.71 7.83C34.20 7.83 34.65 8.05 35 8.36C35.35 8.74 35.55 9.24 35.55 9.81L35.55 9.81C35.55 10.42 35.35 10.91 35 11.30C34.65 11.63 34.20 11.82 33.71 11.82C33.18 11.82 32.72 11.63 32.37 11.30C32.05 10.91 31.86 10.42 31.86 9.81C31.86 9.24 32.05 8.74 32.37 8.36ZM41.51 6.30L41.16 6.30L41.16 4.27C41.16 3.84 40.82 3.50 40.39 3.50C39.96 3.50 39.61 3.84 39.61 4.27L39.61 4.27L39.61 6.30L39.20 6.30C38.77 6.30 38.43 6.64 38.43 7.07C38.43 7.49 38.77 7.84 39.20 7.84L39.61 7.84L39.61 11.75C39.61 12.60 40.31 13.30 41.16 13.30C41.59 13.30 41.93 12.96 41.93 12.53C41.93 12.10 41.59 11.75 41.16 11.75C41.16 11.75 41.16 11.75 41.16 11.75L41.16 7.84L41.51 7.84C41.93 7.84 42.29 7.49 42.29 7.07C42.29 6.64 41.93 6.30 41.51 6.30Z"></path></g><!----><!----></svg>