<svg data-v-423bf9ae="" xmlns="http://www.w3.org/2000/svg" viewBox="0 0 332 91" class="iconLeft"><!----><!----><defs data-v-423bf9ae=""><linearGradient data-v-423bf9ae="" gradientTransform="rotate(25)" id="7a19a845-0a13-4865-b109-7c608790c99f" x1="0%" y1="0%" x2="100%" y2="0%"><stop data-v-423bf9ae="" offset="0%" style="stop-color: rgb(255, 132, 0); stop-opacity: 1;"></stop><stop data-v-423bf9ae="" offset="100%" style="stop-color: rgb(110, 28, 0); stop-opacity: 1;"></stop></linearGradient></defs><g data-v-423bf9ae="" id="e8e0ddbb-e088-4ea8-b2b2-b1dee72ccda3" fill="url(#7a19a845-0a13-4865-b109-7c608790c99f)" transform="matrix(4.827152729034424,0,0,4.827152729034424,127.69404602050781,-1.8950345516204834)"><path d="M7.22 7.06C7.22 6.64 6.89 6.30 6.48 6.30C6.12 6.30 5.84 6.57 5.75 6.92C5.22 6.54 4.59 6.30 3.89 6.30C2.94 6.30 2.11 6.71 1.51 7.35C0.91 7.98 0.56 8.85 0.56 9.81C0.56 10.77 0.91 11.63 1.51 12.28C2.11 12.91 2.94 13.30 3.89 13.30C3.89 13.30 3.89 13.30 3.89 13.30C4.59 13.30 5.22 13.08 5.75 12.70C5.84 13.03 6.12 13.30 6.48 13.30C6.89 13.30 7.22 12.96 7.22 12.56L7.22 9.81C7.22 9.81 7.22 9.81 7.22 9.81C7.22 9.81 7.22 9.81 7.22 9.81L7.22 7.06ZM5.19 11.26C4.86 11.61 4.38 11.80 3.89 11.80C3.39 11.80 2.91 11.61 2.59 11.26C2.25 10.89 2.06 10.39 2.06 9.81C2.06 9.23 2.25 8.72 2.59 8.37C2.91 7.99 3.39 7.80 3.89 7.80C4.38 7.80 4.86 7.99 5.19 8.37C5.53 8.72 5.74 9.23 5.74 9.81C5.74 10.39 5.53 10.89 5.19 11.26ZM10.71 15.93C11.16 15.93 11.51 15.57 11.51 15.18L11.51 12.71C12.01 13.08 12.68 13.29 13.38 13.29C15.25 13.29 16.77 11.73 16.77 9.81C16.77 7.90 15.25 6.30 13.38 6.30C12.67 6.30 12.00 6.54 11.48 6.87C11.42 6.57 11.10 6.30 10.71 6.30C10.30 6.30 9.97 6.64 9.97 7.04L9.97 9.81C9.97 9.81 9.97 9.81 9.97 9.81C9.97 9.83 9.97 9.83 9.97 9.83L9.97 15.18C9.97 15.57 10.30 15.93 10.71 15.93ZM12.05 8.40C12.40 8.02 12.87 7.83 13.38 7.83C13.86 7.83 14.34 8.02 14.70 8.40C15.02 8.76 15.25 9.27 15.25 9.81C15.25 10.36 15.02 10.89 14.70 11.21C14.34 11.61 13.86 11.80 13.38 11.80C12.87 11.80 12.40 11.61 12.05 11.21C11.69 10.89 11.51 10.36 11.51 9.81C11.51 9.27 11.69 8.76 12.05 8.40ZM19.54 6.31C19.12 6.31 18.79 6.64 18.79 7.08L18.79 12.54C18.79 12.96 19.12 13.30 19.54 13.30C19.98 13.30 20.30 12.96 20.30 12.54L20.30 7.08C20.30 6.64 19.98 6.31 19.54 6.31ZM20.30 4.26C20.30 3.84 19.98 3.50 19.54 3.50C19.12 3.50 18.79 3.84 18.79 4.26L18.79 4.55C18.79 4.97 19.12 5.32 19.54 5.32C19.98 5.32 20.30 4.97 20.30 4.55L20.30 4.26ZM29.15 6.51C29.15 4.84 27.80 3.50 26.14 3.50L23.65 3.50C23.65 3.50 23.65 3.50 23.65 3.50C23.65 3.50 23.63 3.50 23.63 3.50C23.21 3.50 22.86 3.84 22.86 4.27L22.86 12.53C22.86 12.95 23.21 13.30 23.63 13.30C24.07 13.30 24.42 12.95 24.42 12.53L24.42 9.49L26.14 9.49C27.80 9.49 29.15 8.15 29.15 6.51ZM24.42 5.05L26.14 5.05C26.95 5.05 27.58 5.70 27.59 6.51C27.58 7.29 26.95 7.94 26.14 7.94L24.42 7.94L24.42 5.05ZM33.71 13.34C33.71 13.34 33.71 13.34 33.71 13.34C34.64 13.34 35.48 12.94 36.05 12.28C36.68 11.66 37.03 10.79 37.03 9.81L37.03 9.81C37.03 8.86 36.68 8.04 36.05 7.36C35.48 6.71 34.64 6.30 33.71 6.30C32.75 6.30 31.93 6.71 31.30 7.36C30.70 8.04 30.34 8.86 30.34 9.81C30.34 10.79 30.70 11.66 31.30 12.28C31.93 12.94 32.75 13.34 33.71 13.34ZM32.37 8.36C32.72 8.05 33.18 7.83 33.71 7.83C34.20 7.83 34.65 8.05 35 8.36C35.35 8.74 35.55 9.24 35.55 9.81L35.55 9.81C35.55 10.42 35.35 10.91 35 11.30C34.65 11.63 34.20 11.82 33.71 11.82C33.18 11.82 32.72 11.63 32.37 11.30C32.05 10.91 31.86 10.42 31.86 9.81C31.86 9.24 32.05 8.74 32.37 8.36ZM41.51 6.30L41.16 6.30L41.16 4.27C41.16 3.84 40.82 3.50 40.39 3.50C39.96 3.50 39.61 3.84 39.61 4.27L39.61 4.27L39.61 6.30L39.20 6.30C38.77 6.30 38.43 6.64 38.43 7.07C38.43 7.49 38.77 7.84 39.20 7.84L39.61 7.84L39.61 11.75C39.61 12.60 40.31 13.30 41.16 13.30C41.59 13.30 41.93 12.96 41.93 12.53C41.93 12.10 41.59 11.75 41.16 11.75C41.16 11.75 41.16 11.75 41.16 11.75L41.16 7.84L41.51 7.84C41.93 7.84 42.29 7.49 42.29 7.07C42.29 6.64 41.93 6.30 41.51 6.30Z"></path></g><defs data-v-423bf9ae=""><linearGradient data-v-423bf9ae="" gradientTransform="rotate(25)" id="067982c1-65c3-44da-8353-c9c255d7736b" x1="0%" y1="0%" x2="100%" y2="0%"><stop data-v-423bf9ae="" offset="0%" style="stop-color: rgb(110, 28, 0); stop-opacity: 1;"></stop><stop data-v-423bf9ae="" offset="100%" style="stop-color: rgb(255, 132, 0); stop-opacity: 1;"></stop></linearGradient></defs><g data-v-423bf9ae="" id="171caedf-bf15-43cb-933f-44477fee2e0d" transform="matrix(1.0773906707763672,0,0,1.0773906707763672,1.8996953964233398,-8.636960983276367)" stroke="none" fill="url(#067982c1-65c3-44da-8353-c9c255d7736b)"><path style="text-indent:0;text-transform:none;block-progression:tb" d="M50.871 8.229c-17.303 0-31.406 14.072-31.406 31.375S33.568 71.01 50.871 71.01c17.303 0 31.438-14.103 31.438-31.406 0-17.303-14.135-31.375-31.438-31.375zm0 6.844c13.603 0 24.594 10.928 24.594 24.53 0 13.604-10.99 24.563-24.594 24.563-13.603 0-24.531-10.96-24.531-24.562a24.461 24.461 0 0 1 24.531-24.531zM14.684 25.54a3.423 3.423 0 0 0-2.469 1.032L2.121 36.698a3.423 3.423 0 0 0-.281.218 3.423 3.423 0 0 0-1.219 3.25 3.423 3.423 0 0 0 0 .094 3.425 3.425 0 0 0 .062.22 3.423 3.423 0 0 0 .031.124 3.423 3.423 0 0 0 .219.531 3.423 3.423 0 0 0 .03.094 3.425 3.425 0 0 0 .126.188 3.423 3.423 0 0 0 .062.094 3.425 3.425 0 0 0 .156.187 3.423 3.423 0 0 0 .062.094 3.425 3.425 0 0 0 .156.188 3.423 3.423 0 0 0 .031.03 3.425 3.425 0 0 0 .22.188l10.437 10.47a3.425 3.425 0 1 0 4.843-4.845l-8.218-8.218 8.218-8.188a3.423 3.423 0 0 0-2.375-5.875zm72.437 0a3.423 3.423 0 0 0-2.375 5.875l8.219 8.188-8.219 8.219a3.425 3.425 0 1 0 4.844 4.843l10.437-10.468a3.425 3.425 0 0 0 .22-.188 3.423 3.423 0 0 0 .03-.03 3.425 3.425 0 0 0 .156-.188 3.423 3.423 0 0 0 .062-.094 3.425 3.425 0 0 0 .157-.188 3.423 3.423 0 0 0 .063-.094 3.425 3.425 0 0 0 .125-.187 3.423 3.423 0 0 0 .03-.094 3.423 3.423 0 0 0 .22-.532 3.423 3.423 0 0 0 .03-.125 3.425 3.425 0 0 0 .062-.218 3.423 3.423 0 0 0 0-.094 3.423 3.423 0 0 0-1.218-3.25 3.423 3.423 0 0 0-.282-.22L89.59 26.573a3.423 3.423 0 0 0-2.469-1.031zm-62.25 36.594a3.423 3.423 0 0 0-2.375 1.031L-.223 85.916a3.425 3.425 0 1 0 4.844 4.844L27.34 68.01a3.423 3.423 0 0 0-2.469-5.875z" overflow="visible" color="#000"></path></g><!----></svg>