<svg data-v-423bf9ae="" xmlns="http://www.w3.org/2000/svg" viewBox="0 0 189.5903165735568 60" class="font"><!----><!----><!----><g data-v-423bf9ae="" id="d3a87c0d-fb49-4627-8d19-7f5f385f8353" fill="black" transform="matrix(4.76722526550293,0,0,4.76722526550293,-2.290501356124878,-1.3780256509780884)"><path d="M7.27 8.48C7.15 8.53 7.06 8.54 6.96 8.54C6.69 8.54 6.55 8.33 6.55 7.76L6.55 6.03C6.55 4.05 5.46 3.37 3.75 3.37C2.34 3.37 1.51 3.65 0.92 4.14C0.46 4.51 0.56 5.56 1.04 5.26C1.61 4.93 2.38 4.69 3.25 4.69C4.42 4.69 4.91 5.08 4.91 6.24L4.91 6.31C4.48 6.09 3.84 5.95 2.94 5.95C1.44 5.95 0.48 6.76 0.48 8.01C0.48 9.25 1.39 10.05 2.79 10.05C3.86 10.05 4.62 9.66 5.08 9.24C5.31 9.81 5.73 10.02 6.22 10.02C6.55 10.02 6.92 9.93 7.27 9.79C7.87 9.53 7.87 8.26 7.27 8.48ZM3.23 8.75C2.42 8.75 2.13 8.37 2.13 7.97C2.13 7.55 2.45 7.15 3.32 7.15C4.13 7.15 4.66 7.29 4.91 7.48L4.91 8.04C4.66 8.34 4.10 8.75 3.23 8.75ZM12.56 3.37C11.65 3.37 10.84 3.70 10.26 4.23L10.05 3.67C9.93 3.28 8.68 3.25 8.68 3.78L8.68 12.46C8.68 13.01 10.33 13.01 10.33 12.46L10.33 9.30C10.91 9.77 11.69 10.04 12.56 10.04C14.06 10.04 15.05 8.74 15.05 6.73C15.05 4.72 14.06 3.37 12.56 3.37ZM11.84 8.61C11.30 8.60 10.78 8.37 10.33 7.95L10.33 5.50C10.77 5.05 11.30 4.82 11.84 4.80C12.87 4.80 13.40 5.46 13.40 6.72C13.40 7.95 12.87 8.61 11.84 8.61ZM17.21 2.31C17.77 2.31 18.16 1.92 18.16 1.29C18.16 0.70 17.77 0.29 17.21 0.29C16.62 0.29 16.24 0.70 16.24 1.29C16.24 1.92 16.62 2.31 17.21 2.31ZM18.35 8.51C18.31 8.53 18.27 8.54 18.23 8.54C18.09 8.54 18.02 8.43 18.02 8.25L18.02 3.56C18.02 2.90 16.37 3.58 16.37 4.26L16.37 8.65C16.37 9.63 16.84 10.04 17.47 10.04C17.75 10.04 18.06 9.97 18.35 9.83C18.94 9.53 18.94 8.26 18.35 8.51ZM22.96 1.04C21.01 1.04 20.06 1.43 20.06 1.78L20.06 9.63C20.06 10.19 21.70 10.18 21.70 9.63L21.70 7.14C22.36 7.29 22.92 7.36 23.42 7.36C25.73 7.36 26.61 5.88 26.61 4.27C26.61 2.18 25.27 1.04 22.96 1.04ZM23.13 6.05C22.74 6.05 22.26 5.98 21.70 5.84L21.70 2.63C22.11 2.51 22.55 2.45 22.99 2.45C24.28 2.45 24.95 3.08 24.95 4.26C24.95 5.28 24.47 6.05 23.13 6.05ZM30.74 10.05C32.83 10.05 34.05 8.82 34.05 6.72C34.05 4.61 32.83 3.36 30.74 3.36C28.66 3.36 27.44 4.61 27.44 6.72C27.44 8.82 28.66 10.05 30.74 10.05ZM30.74 8.82C29.69 8.82 29.08 8.06 29.08 6.72C29.08 5.35 29.69 4.59 30.74 4.59C31.79 4.59 32.41 5.35 32.41 6.72C32.41 8.06 31.79 8.82 30.74 8.82ZM39.73 8.26C38.42 9.02 37.63 8.76 37.63 7.45L37.63 5.12L39.83 5.12C40.39 5.12 40.39 3.68 39.83 3.68L37.63 3.68L37.63 2.03C37.63 1.50 36.33 1.50 36.26 1.90L35.98 3.68L35.13 3.68C34.57 3.68 34.57 5.12 35.13 5.12L35.98 5.12L35.98 7.39C35.98 9.95 37.94 10.58 39.73 9.59C40.21 9.30 40.19 8.01 39.73 8.26Z"></path></g><!----><!----></svg>